<?xml version="1.0" encoding="UTF-8" standalone="no"?>
<!-- Created with Inkscape (http://www.inkscape.org/) -->

<svg
   xmlns:dc="http://purl.org/dc/elements/1.1/"
   xmlns:cc="http://creativecommons.org/ns#"
   xmlns:rdf="http://www.w3.org/1999/02/22-rdf-syntax-ns#"
   xmlns:svg="http://www.w3.org/2000/svg"
   xmlns="http://www.w3.org/2000/svg"
   xmlns:sodipodi="http://sodipodi.sourceforge.net/DTD/sodipodi-0.dtd"
   xmlns:inkscape="http://www.inkscape.org/namespaces/inkscape"
   version="1.1"
   id="svg2"
   xml:space="preserve"
   width="1850"
   height="236"
   viewBox="0 0 1850 236"
   sodipodi:docname="atletasnow-logotipo.svg"
   inkscape:version="0.92.3 (2405546, 2018-03-11)"><metadata
     id="metadata8"><rdf:RDF><cc:Work
         rdf:about=""><dc:format>image/svg+xml</dc:format><dc:type
           rdf:resource="http://purl.org/dc/dcmitype/StillImage" /><dc:title></dc:title></cc:Work></rdf:RDF></metadata><defs
     id="defs6"><clipPath
       clipPathUnits="userSpaceOnUse"
       id="clipPath42"><path
         d="M 0,1080 H 1920 V 0 H 0 Z"
         id="path40"
         inkscape:connector-curvature="0" /></clipPath><clipPath
       clipPathUnits="userSpaceOnUse"
       id="clipPath54"><path
         d="M 1243.547,626.51 V 522.625 l -88.654,103.885 h -21.368 V 458.521 h 33.188 v 102.976 l 87.063,-102.976 h 22.959 V 626.51 Z"
         id="path52"
         inkscape:connector-curvature="0" /></clipPath><linearGradient
       x1="0"
       y1="0"
       x2="1"
       y2="0"
       gradientUnits="userSpaceOnUse"
       gradientTransform="matrix(0,-167.9881,-167.9881,0,1205.13,626.50989)"
       spreadMethod="pad"
       id="linearGradient66"><stop
         style="stop-opacity:1;stop-color:#ff5f00"
         offset="0"
         id="stop60" /><stop
         style="stop-opacity:1;stop-color:#a0002a"
         offset="0.999671"
         id="stop62" /><stop
         style="stop-opacity:1;stop-color:#a0002a"
         offset="1"
         id="stop64" /></linearGradient><clipPath
       clipPathUnits="userSpaceOnUse"
       id="clipPath76"><path
         d="m 1673.175,626.51 -33.416,-112.977 -38.871,112.977 h -21.368 l -38.19,-112.977 -33.871,112.977 h -36.825 l 55.693,-167.989 h 28.415 l 35.688,110.022 35.689,-110.022 h 28.415 L 1710,626.51 Z"
         id="path74"
         inkscape:connector-curvature="0" /></clipPath><linearGradient
       x1="0"
       y1="0"
       x2="1"
       y2="0"
       gradientUnits="userSpaceOnUse"
       gradientTransform="matrix(0,-167.9881,-167.9881,0,1590.317,626.50989)"
       spreadMethod="pad"
       id="linearGradient88"><stop
         style="stop-opacity:1;stop-color:#ff5f00"
         offset="0"
         id="stop82" /><stop
         style="stop-opacity:1;stop-color:#a0002a"
         offset="0.999671"
         id="stop84" /><stop
         style="stop-opacity:1;stop-color:#a0002a"
         offset="1"
         id="stop86" /></linearGradient><clipPath
       clipPathUnits="userSpaceOnUse"
       id="clipPath98"><path
         d="m 1294.676,538.522 c 0,-48.594 39.393,-87.987 87.988,-87.987 v 0 c 48.593,0 87.987,39.393 87.987,87.987 v 0 c 0,48.595 -39.394,87.988 -87.987,87.988 v 0 c -48.595,0 -87.988,-39.393 -87.988,-87.988 m 84.574,82.531 h 6.824 v -17.186 h -6.824 z m 33.135,-24.23 8.587,14.877 5.912,-3.409 -8.598,-14.884 z m -73.942,11.464 5.908,3.411 8.592,-14.877 -5.905,-3.415 z m 99.104,-34.138 14.883,8.594 3.415,-5.908 -14.884,-8.596 z m -128.061,2.686 3.411,5.908 14.878,-8.594 -3.408,-5.911 z m 41.441,-18.943 c 1.066,1.748 2.255,3.371 3.557,4.895 v 0 c 0.246,0.285 0.507,0.583 0.755,0.868 v 0 c 0.545,0.595 1.102,1.165 1.685,1.722 v 0 c 0.285,0.273 0.57,0.546 0.868,0.806 v 0 c 0.582,0.533 1.177,1.041 1.797,1.524 v 0 c 0.223,0.173 0.446,0.347 0.669,0.508 v 0 c 2.032,1.549 4.214,2.875 6.518,3.954 v 0 c 0.36,0.172 0.732,0.334 1.103,0.496 v 0 c 0.831,0.371 1.673,0.693 2.529,0.978 v 0 c 0.854,0.309 1.735,0.571 2.614,0.805 v 0 c 0.038,0.013 0.087,0.026 0.136,0.038 v 0 c 0.844,0.21 1.686,0.409 2.554,0.57 v 0 c 0.446,0.087 0.905,0.161 1.364,0.223 v 0 c 0.396,0.062 0.804,0.124 1.213,0.161 v 0 c 0.768,0.099 1.537,0.161 2.317,0.199 v 0 c 0.273,0.024 0.558,0.036 0.832,0.036 v 0 c 0.408,0.013 0.817,0.025 1.226,0.025 v 0 c 20.497,0 37.178,-16.68 37.178,-37.178 v 0 c 0,-1.139 -0.632,-2.169 -1.636,-2.689 v 0 c -1.004,-0.508 -2.219,-0.434 -3.136,0.223 v 0 l -1.3,0.93 -10.001,7.113 3.493,4.907 5.9,-4.188 c -0.222,1.115 -0.52,2.218 -0.867,3.284 v 0 c -0.111,0.36 -0.248,0.719 -0.372,1.078 v 0 c -0.013,0.025 -0.013,0.05 -0.026,0.063 v 0 c -0.161,0.433 -0.333,0.867 -0.507,1.288 v 0 c -0.024,0.062 -0.038,0.111 -0.075,0.161 v 0 c -0.124,0.322 -0.273,0.657 -0.434,0.967 v 0 c -0.073,0.185 -0.161,0.371 -0.26,0.558 v 0 c -0.185,0.384 -0.371,0.756 -0.582,1.126 v 0 c -0.198,0.373 -0.409,0.745 -0.632,1.117 v 0 c -0.049,0.087 -0.111,0.173 -0.161,0.259 v 0 c -0.508,0.831 -1.054,1.637 -1.637,2.417 v 0 c -0.296,0.397 -0.606,0.793 -0.929,1.177 v 0 c -0.31,0.385 -0.632,0.769 -0.966,1.128 v 0 l -0.025,0.025 c -0.298,0.322 -0.595,0.644 -0.905,0.954 v 0 c -0.049,0.05 -0.111,0.113 -0.173,0.174 v 0 c -0.285,0.285 -0.57,0.558 -0.867,0.83 v 0 c -0.099,0.087 -0.199,0.173 -0.297,0.273 v 0 c -0.645,0.582 -1.327,1.14 -2.021,1.673 v 0 c -0.05,0.025 -0.099,0.061 -0.136,0.098 v 0 c -0.409,0.298 -0.818,0.596 -1.227,0.868 v 0 c -0.495,0.335 -0.991,0.658 -1.512,0.955 v 0 c -0.31,0.198 -0.632,0.372 -0.955,0.545 v 0 c -0.322,0.186 -0.656,0.359 -0.99,0.52 v 0 c -0.224,0.124 -0.447,0.236 -0.669,0.335 v 0 c -0.385,0.186 -0.769,0.359 -1.166,0.52 v 0 c -0.805,0.348 -1.648,0.657 -2.491,0.93 v 0 c -0.061,0.024 -0.124,0.05 -0.185,0.062 v 0 c -0.286,0.099 -0.571,0.186 -0.868,0.26 v 0 c -0.397,0.125 -0.805,0.223 -1.227,0.322 v 0 c -0.26,0.074 -0.521,0.124 -0.781,0.186 v 0 c -0.186,0.037 -0.384,0.087 -0.581,0.112 v 0 c -0.348,0.074 -0.695,0.136 -1.054,0.186 v 0 c -0.113,0.024 -0.224,0.037 -0.335,0.062 v 0 c -0.36,0.049 -0.719,0.099 -1.078,0.136 v 0 c -0.371,0.049 -0.744,0.075 -1.115,0.1 v 0 c -0.322,0.036 -0.658,0.048 -0.993,0.061 v 0 c -0.458,0.025 -0.929,0.037 -1.399,0.037 v 0 c -0.396,0 -0.793,-0.012 -1.19,-0.024 v 0 c -0.36,-0.013 -0.719,-0.026 -1.066,-0.063 v 0 c -0.818,-0.049 -1.623,-0.135 -2.429,-0.26 v 0 c -0.383,-0.062 -0.768,-0.124 -1.139,-0.198 v 0 c -0.076,-0.012 -0.137,-0.026 -0.199,-0.037 v 0 c -0.694,-0.125 -1.375,-0.285 -2.057,-0.471 v 0 c -0.756,-0.198 -1.5,-0.421 -2.231,-0.694 v 0 c -0.347,-0.112 -0.694,-0.236 -1.028,-0.372 v 0 c -0.707,-0.261 -1.4,-0.558 -2.083,-0.892 v 0 c -0.681,-0.323 -1.363,-0.669 -2.02,-1.054 v 0 c -0.656,-0.371 -1.288,-0.768 -1.92,-1.189 v 0 c -0.249,-0.161 -0.508,-0.347 -0.756,-0.52 v 0 c -0.979,-0.707 -1.921,-1.463 -2.813,-2.269 v 0 c -0.459,-0.421 -0.905,-0.855 -1.339,-1.301 v 0 c -0.247,-0.235 -0.472,-0.483 -0.681,-0.732 v 0 c -0.223,-0.247 -0.447,-0.495 -0.67,-0.742 v 0 c -1.077,-1.277 -2.082,-2.641 -2.973,-4.103 v 0 h -0.013 z m -50.794,-15.955 h 17.185 v -6.823 h -17.185 z m 147.875,-0.005 h 17.186 v -6.82 h -17.186 z m -102.522,-3.41 c 0,1.129 0.62,2.158 1.623,2.677 v 0 c 1.005,0.508 2.219,0.434 3.135,-0.222 v 0 l 1.302,-0.93 10.001,-7.114 -3.496,-4.907 -5.897,4.189 c 0.185,-0.917 0.42,-1.823 0.681,-2.714 v 0 c 0.074,-0.248 0.161,-0.496 0.247,-0.731 v 0 c 0.112,-0.385 0.248,-0.756 0.385,-1.129 v 0 c 0.137,-0.372 0.285,-0.742 0.446,-1.102 v 0 c 0.037,-0.099 0.074,-0.198 0.124,-0.298 v 0 c 0.137,-0.322 0.272,-0.632 0.421,-0.942 v 0 c 0.063,-0.136 0.124,-0.26 0.187,-0.384 v 0 c 0.185,-0.384 0.371,-0.768 0.581,-1.139 v 0 c 0.311,-0.595 0.658,-1.177 1.005,-1.736 v 0 c 0.198,-0.309 0.396,-0.619 0.607,-0.928 v 0 c 0.334,-0.497 0.681,-0.98 1.053,-1.451 v 0 c 0.236,-0.322 0.483,-0.632 0.744,-0.942 v 0 c 0.309,-0.384 0.631,-0.756 0.966,-1.127 v 0 c 0.012,-0.013 0.012,-0.025 0.024,-0.025 v 0 c 0.297,-0.323 0.595,-0.644 0.905,-0.954 v 0 c 0.063,-0.063 0.112,-0.125 0.174,-0.173 v 0 c 0.285,-0.286 0.57,-0.559 0.867,-0.832 v 0 c 0.1,-0.098 0.198,-0.185 0.298,-0.272 v 0 c 0.656,-0.582 1.326,-1.14 2.02,-1.66 v 0 c 0.496,-0.373 0.991,-0.732 1.499,-1.067 v 0 c 0.335,-0.222 0.67,-0.446 1.016,-0.656 v 0 c 0.088,-0.063 0.187,-0.111 0.286,-0.161 v 0 c 0.371,-0.236 0.757,-0.446 1.14,-0.656 v 0 c 0.335,-0.187 0.682,-0.373 1.041,-0.534 v 0 c 1.586,-0.805 3.259,-1.462 4.982,-1.957 v 0 c 0.309,-0.1 0.607,-0.187 0.917,-0.261 v 0 c 0.161,-0.05 0.322,-0.087 0.483,-0.124 v 0 c 0.285,-0.074 0.583,-0.136 0.879,-0.198 v 0 c 0.161,-0.037 0.336,-0.075 0.496,-0.1 v 0 c 0.397,-0.086 0.807,-0.161 1.203,-0.222 v 0 c 0.062,-0.012 0.124,-0.012 0.172,-0.025 v 0 c 0.397,-0.063 0.793,-0.111 1.191,-0.149 v 0 c 0.359,-0.05 0.719,-0.075 1.078,-0.099 v 0 c 0.322,-0.037 0.656,-0.049 0.991,-0.061 v 0 c 0.458,-0.027 0.93,-0.038 1.401,-0.038 v 0 c 0.397,0 0.793,0.011 1.177,0.023 v 0 c 0.372,0.015 0.732,0.027 1.091,0.063 v 0 c 0.818,0.05 1.622,0.15 2.404,0.261 v 0 c 1.153,0.174 2.28,0.409 3.395,0.706 v 0 c 0.373,0.099 0.732,0.198 1.103,0.309 v 0 c 0.731,0.224 1.45,0.471 2.156,0.745 v 0 c 0.708,0.284 1.401,0.582 2.083,0.904 v 0 c 0.681,0.322 1.362,0.669 2.019,1.053 v 0 c 0.657,0.372 1.29,0.769 1.922,1.19 v 0 c 0.259,0.174 0.507,0.347 0.756,0.52 v 0 c 1.759,1.264 3.382,2.689 4.845,4.301 v 0 c 0.223,0.236 0.445,0.483 0.657,0.743 v 0 c 0.222,0.262 0.433,0.521 0.644,0.781 v 0 c 0.211,0.26 0.409,0.52 0.62,0.794 v 0 c 0.607,0.804 1.177,1.647 1.71,2.528 v 0 h 0.012 l 5.131,-3.148 c -0.793,-1.302 -1.649,-2.528 -2.564,-3.706 v 0 c -0.298,-0.396 -0.621,-0.781 -0.944,-1.153 v 0 c -0.025,-0.024 -0.037,-0.049 -0.061,-0.062 v 0 c -0.261,-0.285 -0.508,-0.582 -0.768,-0.867 v 0 c -0.274,-0.285 -0.546,-0.582 -0.818,-0.867 v 0 c -0.273,-0.285 -0.559,-0.558 -0.844,-0.831 v 0 c -0.283,-0.272 -0.569,-0.546 -0.867,-0.805 v 0 c -0.631,-0.582 -1.288,-1.128 -1.958,-1.649 v 0 c -0.346,-0.273 -0.694,-0.532 -1.04,-0.793 v 0 c -0.038,-0.024 -0.075,-0.048 -0.112,-0.074 v 0 c -0.347,-0.248 -0.695,-0.484 -1.041,-0.719 v 0 c -2.528,-1.71 -5.254,-3.085 -8.143,-4.101 v 0 c -0.965,-0.347 -1.945,-0.658 -2.936,-0.917 v 0 c -0.037,-0.013 -0.074,-0.024 -0.124,-0.037 v 0 c -0.843,-0.211 -1.685,-0.41 -2.553,-0.571 v 0 c -0.446,-0.087 -0.905,-0.161 -1.363,-0.224 v 0 c -0.409,-0.061 -0.806,-0.122 -1.214,-0.161 v 0 c -0.768,-0.098 -1.537,-0.16 -2.318,-0.197 v 0 c -0.273,-0.025 -0.558,-0.038 -0.831,-0.038 v 0 c -0.408,-0.011 -0.818,-0.024 -1.226,-0.024 v 0 c -20.51,0 -37.178,16.668 -37.178,37.177 m -36,-38.31 14.881,8.595 3.409,-5.912 -14.879,-8.589 z m 128.061,2.685 3.414,5.909 14.884,-8.594 -3.415,-5.904 z m -25.162,-22.675 5.901,3.415 8.598,-14.883 -5.912,-3.409 z m -73.942,-11.467 8.595,14.882 5.905,-3.415 -8.592,-14.877 z m 40.81,4.423 h 6.826 v -17.186 h -6.826 z"
         id="path96"
         inkscape:connector-curvature="0" /></clipPath><linearGradient
       x1="0"
       y1="0"
       x2="1"
       y2="0"
       gradientUnits="userSpaceOnUse"
       gradientTransform="matrix(0,-175.97488,-175.97488,0,1382.6637,626.50989)"
       spreadMethod="pad"
       id="linearGradient110"><stop
         style="stop-opacity:1;stop-color:#ff5f00"
         offset="0"
         id="stop104" /><stop
         style="stop-opacity:1;stop-color:#a0002a"
         offset="0.999671"
         id="stop106" /><stop
         style="stop-opacity:1;stop-color:#a0002a"
         offset="1"
         id="stop108" /></linearGradient></defs><sodipodi:namedview
     pagecolor="#ffffff"
     bordercolor="#666666"
     borderopacity="1"
     objecttolerance="10"
     gridtolerance="10"
     guidetolerance="10"
     inkscape:pageopacity="0"
     inkscape:pageshadow="2"
     inkscape:window-width="1366"
     inkscape:window-height="705"
     id="namedview4"
     showgrid="false"
     inkscape:zoom="0.30625"
     inkscape:cx="866.42654"
     inkscape:cy="164.38566"
     inkscape:window-x="0"
     inkscape:window-y="34"
     inkscape:window-maximized="1"
     inkscape:current-layer="g10" /><g
     id="g10"
     inkscape:groupmode="layer"
     inkscape:label="AtletasNow_LogoPrincipal-01"
     transform="matrix(1.3333333,0,0,-1.3333333,0,236)"><g
       id="g12"
       transform="matrix(0.91787909,0,0,0.91787909,71.85424,149.44972)"
       inkscape:export-xdpi="95.400002"
       inkscape:export-ydpi="95.400002"><path
         d="M 0,0 -34.779,-89.336 H 34.78 Z m 58.875,-152.758 -21.14,55.011 h -75.242 l -21.368,-55.011 H -68.65 L -2.728,15.23 H 2.955 L 68.65,-152.758 Z"
         style="fill:#000000;fill-opacity:1;fill-rule:nonzero;stroke:none"
         id="path14"
         inkscape:connector-curvature="0" /></g><g
       id="g16"
       transform="matrix(0.91787909,0,0,0.91787909,173.4686,155.70901)"
       inkscape:export-xdpi="95.400002"
       inkscape:export-ydpi="95.400002"><path
         d="M 0,0 H -51.602 V 8.411 H 60.466 V 0 H 9.093 V -159.578 H 0 Z"
         style="fill:#000000;fill-opacity:1;fill-rule:nonzero;stroke:none"
         id="path18"
         inkscape:connector-curvature="0" /></g><g
       id="g20"
       transform="matrix(0.91787909,0,0,0.91787909,245.66052,9.23607)"
       inkscape:export-xdpi="95.400002"
       inkscape:export-ydpi="95.400002"><path
         d="M 0,0 V 167.988 H 9.093 V 8.411 h 95.701 V 0 Z"
         style="fill:#000000;fill-opacity:1;fill-rule:nonzero;stroke:none"
         id="path22"
         inkscape:connector-curvature="0" /></g><g
       id="g24"
       transform="matrix(0.91787909,0,0,0.91787909,358.53909,9.23607)"
       inkscape:export-xdpi="95.400002"
       inkscape:export-ydpi="95.400002"><path
         d="m 0,0 v 167.988 h 99.792 v -8.41 H 9.093 V 89.109 H 94.11 V 80.698 H 9.093 V 8.411 h 91.609 V 0 Z"
         style="fill:#000000;fill-opacity:1;fill-rule:nonzero;stroke:none"
         id="path26"
         inkscape:connector-curvature="0" /></g><g
       id="g28"
       transform="matrix(0.91787909,0,0,0.91787909,514.60993,155.70901)"
       inkscape:export-xdpi="95.400002"
       inkscape:export-ydpi="95.400002"><path
         d="M 0,0 H -51.602 V 8.411 H 60.466 V 0 H 9.092 V -159.578 H 0 Z"
         style="fill:#000000;fill-opacity:1;fill-rule:nonzero;stroke:none"
         id="path30"
         inkscape:connector-curvature="0" /></g><g
       id="g32"
       transform="matrix(0.91787909,0,0,0.91787909,624.98801,149.44972)"
       inkscape:export-xdpi="95.400002"
       inkscape:export-ydpi="95.400002"><path
         d="m 0,0 -34.78,-89.336 h 69.559 z m 58.875,-152.758 -21.14,55.011 h -75.243 l -21.367,-55.011 H -68.65 L -2.728,15.23 H 2.955 L 68.65,-152.758 Z"
         style="fill:#000000;fill-opacity:1;fill-rule:nonzero;stroke:none"
         id="path34"
         inkscape:connector-curvature="0" /></g><g
       id="g36"
       inkscape:export-xdpi="95.400002"
       inkscape:export-ydpi="95.400002"
       transform="matrix(0.91787909,0,0,0.91787909,-183.91267,-411.63123)"><g
         id="g38"
         clip-path="url(#clipPath42)"><g
           id="g44"
           transform="translate(959.2422,490.8008)"><path
             d="m 0,0 7.729,3.864 c 8.411,-18.867 24.323,-30.46 46.146,-30.46 12.502,0 22.731,3.409 30.688,10.229 8.183,7.047 12.275,15.685 12.275,26.369 0,14.549 -7.73,23.642 -25.005,31.825 -3.41,1.591 -9.548,4.319 -17.958,7.729 l -14.321,5.91 C 18.867,64.559 8.639,77.97 8.639,95.928 c 0,12.503 4.318,22.732 12.957,30.688 8.637,7.956 20.004,12.048 34.097,12.048 19.777,0 35.461,-8.411 46.6,-25.005 l -7.047,-5.001 c -9.774,14.321 -22.731,21.595 -39.325,21.595 -11.139,0 -20.459,-3.182 -27.506,-9.547 -7.047,-6.365 -10.684,-14.548 -10.684,-24.778 0,-13.411 6.365,-22.959 24.323,-31.824 2.728,-1.364 8.411,-3.865 17.049,-7.501 8.638,-3.411 14.548,-5.911 17.503,-7.275 19.549,-9.32 29.325,-22.505 29.325,-39.326 0,-13.411 -5.001,-24.096 -14.777,-32.506 C 81.38,-30.915 69.104,-35.007 54.557,-35.007 30.915,-35.007 10.229,-23.414 0,0"
             style="fill:#000000;fill-opacity:1;fill-rule:nonzero;stroke:none"
             id="path46"
             inkscape:connector-curvature="0" /></g></g></g><g
       id="g48"
       inkscape:export-xdpi="95.400002"
       inkscape:export-ydpi="95.400002"
       transform="matrix(0.91787909,0,0,0.91787909,-183.91267,-411.63123)"><g
         id="g50"
         clip-path="url(#clipPath54)"><g
           id="g56"><g
             id="g58"><path
               d="M 1243.547,626.51 V 522.625 l -88.654,103.885 h -21.368 V 458.521 h 33.188 v 102.976 l 87.063,-102.976 h 22.959 V 626.51 Z"
               style="fill:url(#linearGradient66);stroke:none"
               id="path68"
               inkscape:connector-curvature="0" /></g></g></g></g><g
       id="g70"
       inkscape:export-xdpi="95.400002"
       inkscape:export-ydpi="95.400002"
       transform="matrix(0.91787909,0,0,0.91787909,-183.91267,-411.63123)"><g
         id="g72"
         clip-path="url(#clipPath76)"><g
           id="g78"><g
             id="g80"><path
               d="m 1673.175,626.51 -33.416,-112.977 -38.871,112.977 h -21.368 l -38.19,-112.977 -33.871,112.977 h -36.825 l 55.693,-167.989 h 28.415 l 35.688,110.022 35.689,-110.022 h 28.415 L 1710,626.51 Z"
               style="fill:url(#linearGradient88);stroke:none"
               id="path90"
               inkscape:connector-curvature="0" /></g></g></g></g><g
       id="g92"
       inkscape:export-xdpi="95.400002"
       inkscape:export-ydpi="95.400002"
       transform="matrix(0.91787909,0,0,0.91787909,-183.91267,-411.63123)"><g
         id="g94"
         clip-path="url(#clipPath98)"><g
           id="g100"><g
             id="g102"><path
               d="m 1294.676,538.522 c 0,-48.594 39.393,-87.987 87.988,-87.987 v 0 c 48.593,0 87.987,39.393 87.987,87.987 v 0 c 0,48.595 -39.394,87.988 -87.987,87.988 v 0 c -48.595,0 -87.988,-39.393 -87.988,-87.988 m 84.574,82.531 h 6.824 v -17.186 h -6.824 z m 33.135,-24.23 8.587,14.877 5.912,-3.409 -8.598,-14.884 z m -73.942,11.464 5.908,3.411 8.592,-14.877 -5.905,-3.415 z m 99.104,-34.138 14.883,8.594 3.415,-5.908 -14.884,-8.596 z m -128.061,2.686 3.411,5.908 14.878,-8.594 -3.408,-5.911 z m 41.441,-18.943 c 1.066,1.748 2.255,3.371 3.557,4.895 v 0 c 0.246,0.285 0.507,0.583 0.755,0.868 v 0 c 0.545,0.595 1.102,1.165 1.685,1.722 v 0 c 0.285,0.273 0.57,0.546 0.868,0.806 v 0 c 0.582,0.533 1.177,1.041 1.797,1.524 v 0 c 0.223,0.173 0.446,0.347 0.669,0.508 v 0 c 2.032,1.549 4.214,2.875 6.518,3.954 v 0 c 0.36,0.172 0.732,0.334 1.103,0.496 v 0 c 0.831,0.371 1.673,0.693 2.529,0.978 v 0 c 0.854,0.309 1.735,0.571 2.614,0.805 v 0 c 0.038,0.013 0.087,0.026 0.136,0.038 v 0 c 0.844,0.21 1.686,0.409 2.554,0.57 v 0 c 0.446,0.087 0.905,0.161 1.364,0.223 v 0 c 0.396,0.062 0.804,0.124 1.213,0.161 v 0 c 0.768,0.099 1.537,0.161 2.317,0.199 v 0 c 0.273,0.024 0.558,0.036 0.832,0.036 v 0 c 0.408,0.013 0.817,0.025 1.226,0.025 v 0 c 20.497,0 37.178,-16.68 37.178,-37.178 v 0 c 0,-1.139 -0.632,-2.169 -1.636,-2.689 v 0 c -1.004,-0.508 -2.219,-0.434 -3.136,0.223 v 0 l -1.3,0.93 -10.001,7.113 3.493,4.907 5.9,-4.188 c -0.222,1.115 -0.52,2.218 -0.867,3.284 v 0 c -0.111,0.36 -0.248,0.719 -0.372,1.078 v 0 c -0.013,0.025 -0.013,0.05 -0.026,0.063 v 0 c -0.161,0.433 -0.333,0.867 -0.507,1.288 v 0 c -0.024,0.062 -0.038,0.111 -0.075,0.161 v 0 c -0.124,0.322 -0.273,0.657 -0.434,0.967 v 0 c -0.073,0.185 -0.161,0.371 -0.26,0.558 v 0 c -0.185,0.384 -0.371,0.756 -0.582,1.126 v 0 c -0.198,0.373 -0.409,0.745 -0.632,1.117 v 0 c -0.049,0.087 -0.111,0.173 -0.161,0.259 v 0 c -0.508,0.831 -1.054,1.637 -1.637,2.417 v 0 c -0.296,0.397 -0.606,0.793 -0.929,1.177 v 0 c -0.31,0.385 -0.632,0.769 -0.966,1.128 v 0 l -0.025,0.025 c -0.298,0.322 -0.595,0.644 -0.905,0.954 v 0 c -0.049,0.05 -0.111,0.113 -0.173,0.174 v 0 c -0.285,0.285 -0.57,0.558 -0.867,0.83 v 0 c -0.099,0.087 -0.199,0.173 -0.297,0.273 v 0 c -0.645,0.582 -1.327,1.14 -2.021,1.673 v 0 c -0.05,0.025 -0.099,0.061 -0.136,0.098 v 0 c -0.409,0.298 -0.818,0.596 -1.227,0.868 v 0 c -0.495,0.335 -0.991,0.658 -1.512,0.955 v 0 c -0.31,0.198 -0.632,0.372 -0.955,0.545 v 0 c -0.322,0.186 -0.656,0.359 -0.99,0.52 v 0 c -0.224,0.124 -0.447,0.236 -0.669,0.335 v 0 c -0.385,0.186 -0.769,0.359 -1.166,0.52 v 0 c -0.805,0.348 -1.648,0.657 -2.491,0.93 v 0 c -0.061,0.024 -0.124,0.05 -0.185,0.062 v 0 c -0.286,0.099 -0.571,0.186 -0.868,0.26 v 0 c -0.397,0.125 -0.805,0.223 -1.227,0.322 v 0 c -0.26,0.074 -0.521,0.124 -0.781,0.186 v 0 c -0.186,0.037 -0.384,0.087 -0.581,0.112 v 0 c -0.348,0.074 -0.695,0.136 -1.054,0.186 v 0 c -0.113,0.024 -0.224,0.037 -0.335,0.062 v 0 c -0.36,0.049 -0.719,0.099 -1.078,0.136 v 0 c -0.371,0.049 -0.744,0.075 -1.115,0.1 v 0 c -0.322,0.036 -0.658,0.048 -0.993,0.061 v 0 c -0.458,0.025 -0.929,0.037 -1.399,0.037 v 0 c -0.396,0 -0.793,-0.012 -1.19,-0.024 v 0 c -0.36,-0.013 -0.719,-0.026 -1.066,-0.063 v 0 c -0.818,-0.049 -1.623,-0.135 -2.429,-0.26 v 0 c -0.383,-0.062 -0.768,-0.124 -1.139,-0.198 v 0 c -0.076,-0.012 -0.137,-0.026 -0.199,-0.037 v 0 c -0.694,-0.125 -1.375,-0.285 -2.057,-0.471 v 0 c -0.756,-0.198 -1.5,-0.421 -2.231,-0.694 v 0 c -0.347,-0.112 -0.694,-0.236 -1.028,-0.372 v 0 c -0.707,-0.261 -1.4,-0.558 -2.083,-0.892 v 0 c -0.681,-0.323 -1.363,-0.669 -2.02,-1.054 v 0 c -0.656,-0.371 -1.288,-0.768 -1.92,-1.189 v 0 c -0.249,-0.161 -0.508,-0.347 -0.756,-0.52 v 0 c -0.979,-0.707 -1.921,-1.463 -2.813,-2.269 v 0 c -0.459,-0.421 -0.905,-0.855 -1.339,-1.301 v 0 c -0.247,-0.235 -0.472,-0.483 -0.681,-0.732 v 0 c -0.223,-0.247 -0.447,-0.495 -0.67,-0.742 v 0 c -1.077,-1.277 -2.082,-2.641 -2.973,-4.103 v 0 h -0.013 z m -50.794,-15.955 h 17.185 v -6.823 h -17.185 z m 147.875,-0.005 h 17.186 v -6.82 h -17.186 z m -102.522,-3.41 c 0,1.129 0.62,2.158 1.623,2.677 v 0 c 1.005,0.508 2.219,0.434 3.135,-0.222 v 0 l 1.302,-0.93 10.001,-7.114 -3.496,-4.907 -5.897,4.189 c 0.185,-0.917 0.42,-1.823 0.681,-2.714 v 0 c 0.074,-0.248 0.161,-0.496 0.247,-0.731 v 0 c 0.112,-0.385 0.248,-0.756 0.385,-1.129 v 0 c 0.137,-0.372 0.285,-0.742 0.446,-1.102 v 0 c 0.037,-0.099 0.074,-0.198 0.124,-0.298 v 0 c 0.137,-0.322 0.272,-0.632 0.421,-0.942 v 0 c 0.063,-0.136 0.124,-0.26 0.187,-0.384 v 0 c 0.185,-0.384 0.371,-0.768 0.581,-1.139 v 0 c 0.311,-0.595 0.658,-1.177 1.005,-1.736 v 0 c 0.198,-0.309 0.396,-0.619 0.607,-0.928 v 0 c 0.334,-0.497 0.681,-0.98 1.053,-1.451 v 0 c 0.236,-0.322 0.483,-0.632 0.744,-0.942 v 0 c 0.309,-0.384 0.631,-0.756 0.966,-1.127 v 0 c 0.012,-0.013 0.012,-0.025 0.024,-0.025 v 0 c 0.297,-0.323 0.595,-0.644 0.905,-0.954 v 0 c 0.063,-0.063 0.112,-0.125 0.174,-0.173 v 0 c 0.285,-0.286 0.57,-0.559 0.867,-0.832 v 0 c 0.1,-0.098 0.198,-0.185 0.298,-0.272 v 0 c 0.656,-0.582 1.326,-1.14 2.02,-1.66 v 0 c 0.496,-0.373 0.991,-0.732 1.499,-1.067 v 0 c 0.335,-0.222 0.67,-0.446 1.016,-0.656 v 0 c 0.088,-0.063 0.187,-0.111 0.286,-0.161 v 0 c 0.371,-0.236 0.757,-0.446 1.14,-0.656 v 0 c 0.335,-0.187 0.682,-0.373 1.041,-0.534 v 0 c 1.586,-0.805 3.259,-1.462 4.982,-1.957 v 0 c 0.309,-0.1 0.607,-0.187 0.917,-0.261 v 0 c 0.161,-0.05 0.322,-0.087 0.483,-0.124 v 0 c 0.285,-0.074 0.583,-0.136 0.879,-0.198 v 0 c 0.161,-0.037 0.336,-0.075 0.496,-0.1 v 0 c 0.397,-0.086 0.807,-0.161 1.203,-0.222 v 0 c 0.062,-0.012 0.124,-0.012 0.172,-0.025 v 0 c 0.397,-0.063 0.793,-0.111 1.191,-0.149 v 0 c 0.359,-0.05 0.719,-0.075 1.078,-0.099 v 0 c 0.322,-0.037 0.656,-0.049 0.991,-0.061 v 0 c 0.458,-0.027 0.93,-0.038 1.401,-0.038 v 0 c 0.397,0 0.793,0.011 1.177,0.023 v 0 c 0.372,0.015 0.732,0.027 1.091,0.063 v 0 c 0.818,0.05 1.622,0.15 2.404,0.261 v 0 c 1.153,0.174 2.28,0.409 3.395,0.706 v 0 c 0.373,0.099 0.732,0.198 1.103,0.309 v 0 c 0.731,0.224 1.45,0.471 2.156,0.745 v 0 c 0.708,0.284 1.401,0.582 2.083,0.904 v 0 c 0.681,0.322 1.362,0.669 2.019,1.053 v 0 c 0.657,0.372 1.29,0.769 1.922,1.19 v 0 c 0.259,0.174 0.507,0.347 0.756,0.52 v 0 c 1.759,1.264 3.382,2.689 4.845,4.301 v 0 c 0.223,0.236 0.445,0.483 0.657,0.743 v 0 c 0.222,0.262 0.433,0.521 0.644,0.781 v 0 c 0.211,0.26 0.409,0.52 0.62,0.794 v 0 c 0.607,0.804 1.177,1.647 1.71,2.528 v 0 h 0.012 l 5.131,-3.148 c -0.793,-1.302 -1.649,-2.528 -2.564,-3.706 v 0 c -0.298,-0.396 -0.621,-0.781 -0.944,-1.153 v 0 c -0.025,-0.024 -0.037,-0.049 -0.061,-0.062 v 0 c -0.261,-0.285 -0.508,-0.582 -0.768,-0.867 v 0 c -0.274,-0.285 -0.546,-0.582 -0.818,-0.867 v 0 c -0.273,-0.285 -0.559,-0.558 -0.844,-0.831 v 0 c -0.283,-0.272 -0.569,-0.546 -0.867,-0.805 v 0 c -0.631,-0.582 -1.288,-1.128 -1.958,-1.649 v 0 c -0.346,-0.273 -0.694,-0.532 -1.04,-0.793 v 0 c -0.038,-0.024 -0.075,-0.048 -0.112,-0.074 v 0 c -0.347,-0.248 -0.695,-0.484 -1.041,-0.719 v 0 c -2.528,-1.71 -5.254,-3.085 -8.143,-4.101 v 0 c -0.965,-0.347 -1.945,-0.658 -2.936,-0.917 v 0 c -0.037,-0.013 -0.074,-0.024 -0.124,-0.037 v 0 c -0.843,-0.211 -1.685,-0.41 -2.553,-0.571 v 0 c -0.446,-0.087 -0.905,-0.161 -1.363,-0.224 v 0 c -0.409,-0.061 -0.806,-0.122 -1.214,-0.161 v 0 c -0.768,-0.098 -1.537,-0.16 -2.318,-0.197 v 0 c -0.273,-0.025 -0.558,-0.038 -0.831,-0.038 v 0 c -0.408,-0.011 -0.818,-0.024 -1.226,-0.024 v 0 c -20.51,0 -37.178,16.668 -37.178,37.177 m -36,-38.31 14.881,8.595 3.409,-5.912 -14.879,-8.589 z m 128.061,2.685 3.414,5.909 14.884,-8.594 -3.415,-5.904 z m -25.162,-22.675 5.901,3.415 8.598,-14.883 -5.912,-3.409 z m -73.942,-11.467 8.595,14.882 5.905,-3.415 -8.592,-14.877 z m 40.81,4.423 h 6.826 v -17.186 h -6.826 z"
               style="fill:url(#linearGradient110);stroke:none"
               id="path112"
               inkscape:connector-curvature="0" /></g></g></g></g></g></svg>