<?xml version="1.0" encoding="UTF-8" standalone="no"?>
<!-- Created with Inkscape (http://www.inkscape.org/) -->

<svg
   xmlns:dc="http://purl.org/dc/elements/1.1/"
   xmlns:cc="http://creativecommons.org/ns#"
   xmlns:rdf="http://www.w3.org/1999/02/22-rdf-syntax-ns#"
   xmlns:svg="http://www.w3.org/2000/svg"
   xmlns="http://www.w3.org/2000/svg"
   xmlns:sodipodi="http://sodipodi.sourceforge.net/DTD/sodipodi-0.dtd"
   xmlns:inkscape="http://www.inkscape.org/namespaces/inkscape"
   version="1.1"
   id="svg2"
   xml:space="preserve"
   width="1450"
   height="181"
   viewBox="0 0 1450 181"
   sodipodi:docname="atletasnow-logotipo-negativo.svg"
   inkscape:version="0.92.3 (2405546, 2018-03-11)"><metadata
     id="metadata8"><rdf:RDF><cc:Work
         rdf:about=""><dc:format>image/svg+xml</dc:format><dc:type
           rdf:resource="http://purl.org/dc/dcmitype/StillImage" /><dc:title /></cc:Work></rdf:RDF></metadata><defs
     id="defs6"><clipPath
       clipPathUnits="userSpaceOnUse"
       id="clipPath42"><path
         d="M 0,1080 H 1920 V 0 H 0 Z"
         id="path40"
         inkscape:connector-curvature="0" /></clipPath></defs><sodipodi:namedview
     pagecolor="#ffffff"
     bordercolor="#666666"
     borderopacity="1"
     objecttolerance="10"
     gridtolerance="10"
     guidetolerance="10"
     inkscape:pageopacity="0"
     inkscape:pageshadow="2"
     inkscape:window-width="1366"
     inkscape:window-height="705"
     id="namedview4"
     showgrid="false"
     inkscape:zoom="0.30625"
     inkscape:cx="495.10204"
     inkscape:cy="188.27931"
     inkscape:window-x="0"
     inkscape:window-y="34"
     inkscape:window-maximized="1"
     inkscape:current-layer="layer1" /><g
     id="g10"
     inkscape:groupmode="layer"
     inkscape:label="AtletasNow_LogoPrincipal-04"
     transform="matrix(1.3333333,0,0,-1.3333333,0,181)"
     style="display:inline;opacity:1"><g
       id="g12"
       transform="matrix(0.71893388,0,0,0.71893388,53.802922,119.32255)"
       style=""><path
         d="M 0,0 -34.779,-89.336 H 34.78 Z m 58.875,-152.758 -21.14,55.011 h -75.242 l -21.368,-55.011 H -68.65 L -2.728,15.23 H 2.955 L 68.65,-152.758 Z"
         style="fill:#ffffff;fill-opacity:1;fill-rule:nonzero;stroke:none"
         id="path14"
         inkscape:connector-curvature="0" /></g><g
       id="g16"
       transform="matrix(0.71893388,0,0,0.71893388,133.39293,124.22517)"
       style=""><path
         d="M 0,0 H -51.602 V 8.411 H 60.466 V 0 H 9.093 V -159.578 H 0 Z"
         style="fill:#ffffff;fill-opacity:1;fill-rule:nonzero;stroke:none"
         id="path18"
         inkscape:connector-curvature="0" /></g><g
       id="g20"
       transform="matrix(0.71893388,0,0,0.71893388,189.93765,9.4994316)"
       style=""><path
         d="M 0,0 V 167.988 H 9.093 V 8.411 h 95.701 V 0 Z"
         style="fill:#ffffff;fill-opacity:1;fill-rule:nonzero;stroke:none"
         id="path22"
         inkscape:connector-curvature="0" /></g><g
       id="g24"
       transform="matrix(0.71893388,0,0,0.71893388,278.35041,9.4994316)"
       style=""><path
         d="m 0,0 v 167.988 h 99.792 v -8.41 H 9.093 V 89.109 H 94.11 V 80.698 H 9.093 V 8.411 h 91.609 V 0 Z"
         style="fill:#ffffff;fill-opacity:1;fill-rule:nonzero;stroke:none"
         id="path26"
         inkscape:connector-curvature="0" /></g><g
       id="g28"
       transform="matrix(0.71893388,0,0,0.71893388,400.59376,124.22517)"
       style=""><path
         d="M 0,0 H -51.602 V 8.411 H 60.466 V 0 H 9.092 V -159.578 H 0 Z"
         style="fill:#ffffff;fill-opacity:1;fill-rule:nonzero;stroke:none"
         id="path30"
         inkscape:connector-curvature="0" /></g><g
       id="g32"
       transform="matrix(0.71893388,0,0,0.71893388,487.04802,119.32255)"
       style=""><path
         d="m 0,0 -34.78,-89.336 h 69.559 z m 58.875,-152.758 -21.14,55.011 h -75.243 l -21.367,-55.011 H -68.65 L -2.728,15.23 H 2.955 L 68.65,-152.758 Z"
         style="fill:#ffffff;fill-opacity:1;fill-rule:nonzero;stroke:none"
         id="path34"
         inkscape:connector-curvature="0" /></g><g
       id="g36"
       transform="matrix(0.71893388,0,0,0.71893388,-146.52794,-320.14721)"
       style=""><g
         id="g38"
         clip-path="url(#clipPath42)"
         style=""><g
           id="g44"
           transform="translate(959.2422,490.8008)"
           style=""><path
             d="m 0,0 7.729,3.864 c 8.411,-18.867 24.323,-30.46 46.146,-30.46 12.502,0 22.731,3.409 30.688,10.229 8.183,7.047 12.275,15.685 12.275,26.369 0,14.549 -7.73,23.642 -25.005,31.825 -3.41,1.591 -9.548,4.319 -17.958,7.729 l -14.321,5.91 C 18.867,64.559 8.639,77.97 8.639,95.928 c 0,12.503 4.318,22.732 12.957,30.688 8.637,7.956 20.004,12.048 34.097,12.048 19.777,0 35.461,-8.411 46.6,-25.005 l -7.047,-5.001 c -9.774,14.321 -22.731,21.595 -39.325,21.595 -11.139,0 -20.459,-3.182 -27.506,-9.547 -7.047,-6.365 -10.684,-14.548 -10.684,-24.778 0,-13.411 6.365,-22.959 24.323,-31.824 2.728,-1.364 8.411,-3.865 17.049,-7.501 8.638,-3.411 14.548,-5.911 17.503,-7.275 19.549,-9.32 29.325,-22.505 29.325,-39.326 0,-13.411 -5.001,-24.096 -14.777,-32.506 C 81.38,-30.915 69.104,-35.007 54.557,-35.007 30.915,-35.007 10.229,-23.414 0,0"
             style="fill:#ffffff;fill-opacity:1;fill-rule:nonzero;stroke:none"
             id="path46"
             inkscape:connector-curvature="0" /></g><g
           id="g48"
           transform="translate(1243.5469,626.5098)"
           style=""><path
             d="M 0,0 H 33.188 V -167.988 H 10.229 l -87.063,102.975 v -102.975 h -33.188 V 0 h 21.368 L 0,-103.885 Z"
             style="fill:#ffffff;fill-opacity:1;fill-rule:nonzero;stroke:none"
             id="path50"
             inkscape:connector-curvature="0" /></g><g
           id="g52"
           transform="translate(1526.3271,458.5215)"
           style=""><path
             d="m 0,0 -55.693,167.988 h 36.826 L 15.003,55.012 53.192,167.988 h 21.369 l 38.871,-112.976 33.416,112.976 h 36.825 L 128.207,0 H 99.792 L 64.104,110.022 28.415,0 Z"
             style="fill:#ffffff;fill-opacity:1;fill-rule:nonzero;stroke:none"
             id="path54"
             inkscape:connector-curvature="0" /></g><path
           d="m 1386.078,455.992 h -6.825 v 17.186 h 6.825 z m 34.895,9.353 -8.587,14.877 5.9,3.416 8.599,-14.884 z m -108.077,28.961 -3.411,5.906 14.882,8.595 3.409,-5.912 z m 139.534,0.002 -14.883,8.588 3.414,5.91 14.885,-8.594 z m -46.865,14.893 c -0.346,-0.272 -0.694,-0.532 -1.041,-0.793 -0.037,-0.024 -0.074,-0.049 -0.111,-0.074 -0.348,-0.248 -0.694,-0.483 -1.041,-0.719 -2.528,-1.71 -5.255,-3.085 -8.143,-4.101 -0.965,-0.347 -1.945,-0.658 -2.936,-0.917 -0.037,-0.013 -0.074,-0.025 -0.124,-0.037 -0.843,-0.211 -1.686,-0.41 -2.553,-0.571 -0.446,-0.087 -0.905,-0.161 -1.363,-0.223 -0.409,-0.062 -0.806,-0.123 -1.214,-0.162 -0.768,-0.098 -1.537,-0.16 -2.318,-0.197 -0.273,-0.025 -0.558,-0.038 -0.83,-0.038 -0.41,-0.012 -0.819,-0.024 -1.227,-0.024 -20.51,0 -37.178,16.668 -37.178,37.177 0,1.128 0.619,2.157 1.623,2.677 1.004,0.509 2.219,0.434 3.135,-0.223 l 1.302,-0.929 10.001,-7.113 -3.495,-4.908 -5.899,4.189 c 0.186,-0.917 0.421,-1.822 0.682,-2.714 0.074,-0.248 0.161,-0.496 0.247,-0.731 0.112,-0.384 0.248,-0.756 0.385,-1.128 0.137,-0.372 0.285,-0.744 0.446,-1.103 0.037,-0.1 0.074,-0.198 0.124,-0.298 0.137,-0.322 0.273,-0.632 0.421,-0.941 0.063,-0.137 0.124,-0.261 0.187,-0.385 0.185,-0.384 0.371,-0.768 0.582,-1.14 0.31,-0.594 0.657,-1.176 1.003,-1.735 0.199,-0.31 0.397,-0.619 0.608,-0.929 0.334,-0.496 0.681,-0.979 1.054,-1.45 0.235,-0.322 0.482,-0.632 0.743,-0.942 0.309,-0.384 0.632,-0.756 0.967,-1.127 0.011,-0.013 0.011,-0.026 0.024,-0.026 0.297,-0.322 0.595,-0.643 0.904,-0.954 0.063,-0.061 0.112,-0.124 0.174,-0.173 0.285,-0.285 0.57,-0.558 0.867,-0.831 0.1,-0.098 0.199,-0.185 0.298,-0.272 0.656,-0.582 1.326,-1.14 2.02,-1.66 0.496,-0.372 0.991,-0.732 1.5,-1.067 0.334,-0.222 0.669,-0.446 1.015,-0.656 0.087,-0.062 0.187,-0.111 0.286,-0.161 0.372,-0.235 0.756,-0.446 1.14,-0.656 0.335,-0.187 0.682,-0.373 1.041,-0.533 1.586,-0.806 3.259,-1.463 4.982,-1.958 0.309,-0.1 0.607,-0.187 0.917,-0.261 0.161,-0.05 0.322,-0.087 0.483,-0.124 0.285,-0.074 0.583,-0.136 0.88,-0.198 0.161,-0.038 0.335,-0.075 0.495,-0.1 0.397,-0.086 0.807,-0.161 1.203,-0.223 0.062,-0.011 0.124,-0.011 0.173,-0.024 0.396,-0.063 0.793,-0.111 1.19,-0.15 0.36,-0.048 0.719,-0.074 1.078,-0.098 0.322,-0.037 0.657,-0.049 0.992,-0.062 0.458,-0.025 0.929,-0.037 1.4,-0.037 0.397,0 0.793,0.012 1.177,0.024 0.372,0.013 0.731,0.026 1.091,0.062 0.818,0.05 1.623,0.15 2.404,0.261 1.152,0.174 2.28,0.409 3.395,0.706 0.373,0.099 0.732,0.198 1.103,0.309 0.731,0.224 1.45,0.471 2.156,0.745 0.707,0.284 1.401,0.582 2.083,0.904 0.681,0.322 1.363,0.669 2.02,1.054 0.656,0.371 1.289,0.768 1.921,1.189 0.259,0.174 0.507,0.347 0.756,0.521 1.759,1.263 3.382,2.688 4.845,4.3 0.223,0.236 0.446,0.483 0.656,0.743 0.223,0.261 0.434,0.521 0.645,0.781 0.211,0.261 0.409,0.52 0.62,0.794 0.607,0.804 1.177,1.647 1.71,2.528 h 0.012 l 5.131,-3.148 c -0.793,-1.302 -1.649,-2.529 -2.565,-3.705 -0.298,-0.397 -0.62,-0.782 -0.942,-1.154 -0.026,-0.024 -0.037,-0.049 -0.062,-0.061 -0.26,-0.285 -0.508,-0.583 -0.768,-0.868 -0.274,-0.285 -0.546,-0.582 -0.819,-0.867 -0.272,-0.285 -0.557,-0.558 -0.842,-0.831 -0.285,-0.272 -0.57,-0.546 -0.868,-0.805 -0.631,-0.582 -1.289,-1.127 -1.958,-1.649 m 42.443,32.732 h 17.187 v -6.82 h -17.187 z m -28.166,-3.411 c 0,-1.139 -0.632,-2.168 -1.636,-2.689 -1.004,-0.508 -2.219,-0.434 -3.136,0.224 l -1.3,0.929 -10.001,7.113 3.494,4.907 5.899,-4.188 c -0.223,1.115 -0.52,2.218 -0.867,3.284 -0.111,0.359 -0.248,0.719 -0.372,1.078 -0.013,0.025 -0.013,0.05 -0.026,0.063 -0.161,0.433 -0.334,0.867 -0.507,1.288 -0.025,0.062 -0.037,0.112 -0.075,0.161 -0.124,0.322 -0.272,0.657 -0.433,0.967 -0.074,0.185 -0.161,0.372 -0.261,0.558 -0.185,0.384 -0.371,0.755 -0.582,1.127 -0.198,0.372 -0.409,0.743 -0.632,1.116 -0.05,0.086 -0.111,0.173 -0.161,0.26 -0.509,0.83 -1.054,1.635 -1.637,2.416 -0.296,0.397 -0.606,0.793 -0.928,1.177 -0.311,0.385 -0.632,0.769 -0.967,1.128 l -0.025,0.025 c -0.297,0.322 -0.594,0.644 -0.905,0.954 -0.049,0.05 -0.111,0.112 -0.173,0.174 -0.285,0.285 -0.57,0.558 -0.867,0.83 -0.099,0.087 -0.199,0.174 -0.298,0.273 -0.644,0.582 -1.326,1.14 -2.02,1.673 -0.049,0.025 -0.099,0.062 -0.136,0.099 -0.409,0.297 -0.818,0.595 -1.227,0.867 -0.496,0.335 -0.992,0.658 -1.511,0.955 -0.311,0.198 -0.633,0.372 -0.955,0.545 -0.323,0.185 -0.657,0.359 -0.992,0.52 -0.222,0.124 -0.446,0.236 -0.668,0.335 -0.385,0.185 -0.769,0.359 -1.166,0.521 -0.805,0.347 -1.648,0.656 -2.491,0.929 -0.061,0.025 -0.124,0.049 -0.185,0.062 -0.285,0.099 -0.571,0.186 -0.867,0.26 -0.398,0.124 -0.806,0.223 -1.228,0.322 -0.26,0.074 -0.521,0.124 -0.78,0.186 -0.187,0.037 -0.385,0.087 -0.582,0.112 -0.348,0.074 -0.695,0.136 -1.054,0.186 -0.112,0.024 -0.224,0.037 -0.335,0.062 -0.359,0.049 -0.719,0.099 -1.078,0.136 -0.371,0.05 -0.744,0.075 -1.115,0.099 -0.323,0.037 -0.658,0.049 -0.993,0.062 -0.458,0.025 -0.928,0.037 -1.399,0.037 -0.396,0 -0.793,-0.012 -1.19,-0.024 -0.36,-0.013 -0.719,-0.026 -1.066,-0.063 -0.818,-0.049 -1.623,-0.136 -2.429,-0.26 -0.383,-0.062 -0.768,-0.124 -1.139,-0.198 -0.075,-0.013 -0.137,-0.025 -0.199,-0.037 -0.694,-0.125 -1.375,-0.285 -2.057,-0.471 -0.756,-0.198 -1.5,-0.422 -2.23,-0.694 -0.348,-0.112 -0.695,-0.235 -1.03,-0.372 -0.706,-0.26 -1.399,-0.558 -2.082,-0.892 -0.681,-0.322 -1.362,-0.669 -2.019,-1.053 -0.657,-0.372 -1.289,-0.769 -1.921,-1.19 -0.248,-0.161 -0.508,-0.347 -0.756,-0.521 -0.98,-0.706 -1.921,-1.462 -2.813,-2.267 -0.459,-0.422 -0.905,-0.855 -1.338,-1.302 -0.249,-0.235 -0.472,-0.483 -0.682,-0.731 -0.223,-0.248 -0.446,-0.496 -0.67,-0.743 -1.077,-1.277 -2.081,-2.64 -2.974,-4.103 h -0.012 l -5.13,3.148 c 1.065,1.748 2.255,3.371 3.556,4.895 0.247,0.285 0.508,0.583 0.756,0.868 0.545,0.595 1.103,1.165 1.685,1.722 0.285,0.273 0.57,0.546 0.868,0.806 0.582,0.533 1.177,1.041 1.797,1.525 0.223,0.172 0.446,0.346 0.669,0.507 2.032,1.549 4.214,2.875 6.518,3.954 0.36,0.173 0.732,0.334 1.104,0.496 0.83,0.371 1.672,0.693 2.528,0.978 0.855,0.31 1.735,0.57 2.614,0.806 0.038,0.012 0.087,0.025 0.136,0.037 0.844,0.21 1.686,0.409 2.554,0.57 0.445,0.087 0.904,0.161 1.363,0.223 0.397,0.062 0.805,0.124 1.214,0.161 0.769,0.099 1.537,0.161 2.317,0.199 0.273,0.024 0.558,0.036 0.832,0.036 0.408,0.013 0.817,0.025 1.226,0.025 20.497,0 37.178,-16.68 37.178,-37.178 m 21.119,29.717 -3.413,5.91 14.882,8.594 3.416,-5.908 z m -93.923,25.167 -8.595,14.882 5.908,3.41 8.592,-14.877 z m 71.248,0.001 -5.9,3.416 8.587,14.878 5.912,-3.409 z m -32.212,10.46 h -6.824 v 17.187 h 6.824 z m -73.178,-21.124 14.879,-8.594 -3.408,-5.911 -14.882,8.597 z m 4.421,-47.629 h -17.185 v 6.822 h 17.185 z m 29.721,-51.477 5.905,-3.415 -8.592,-14.877 -5.908,3.41 z m 35.626,-33.102 c 48.594,0 87.987,39.393 87.987,87.987 0,48.595 -39.393,87.988 -87.987,87.988 -48.595,0 -87.988,-39.393 -87.988,-87.988 0,-48.594 39.393,-87.987 87.988,-87.987"
           style="fill:#ffffff;fill-opacity:1;fill-rule:nonzero;stroke:none"
           id="path56"
           inkscape:connector-curvature="0" /></g></g></g><g
     inkscape:groupmode="layer"
     id="layer1"
     inkscape:label="AtletasNow_LogoPrincipal-4"
     transform="translate(0,-55)" /></svg>